<svg xmlns="http://www.w3.org/2000/svg" viewBox="0 0 24 24">
  <path fill="#528BCC" d="M7.1277704,2 L16.8722296,2 C18.6552671,2 19.3018396,2.18565122 19.9536914,2.53426541 C20.6055433,2.88287959 21.1171204,3.39445674 21.4657346,4.04630859 C21.8143488,4.69816044 22,5.34473292 22,7.1277704 L22,16.8722296 C22,18.6552671 21.8143488,19.3018396 21.4657346,19.9536914 C21.1171204,20.6055433 20.6055433,21.1171204 19.9536914,21.4657346 C19.3018396,21.8143488 18.6552671,22 16.8722296,22 L7.1277704,22 C5.34473292,22 4.69816044,21.8143488 4.04630859,21.4657346 C3.39445674,21.1171204 2.88287959,20.6055433 2.53426541,19.9536914 C2.18565122,19.3018396 2,18.6552671 2,16.8722296 L2,7.1277704 C2,5.34473292 2.18565122,4.69816044 2.53426541,4.04630859 C2.88287959,3.39445674 3.39445674,2.88287959 4.04630859,2.53426541 C4.69816044,2.18565122 5.34473292,2 7.1277704,2 Z M5.69999981,11.519989 C5.69076355,11.5288296 5.68171061,11.5378598 5.67284678,11.5470737 C5.31683317,11.9171505 5.32823356,12.505763 5.69831027,12.8617766 L9.30703787,16.3333708 C9.69406545,16.7056911 10.30607,16.7058319 10.6932688,16.3336897 L18.298896,9.02381636 C18.3074489,9.01559607 18.3158447,9.00721394 18.324079,8.99867452 C18.6829558,8.62649934 18.6721754,8.03386461 18.3000002,7.67498779 L18.2931462,7.66837874 C17.9061673,7.29522715 17.2934155,7.29479313 16.9059084,7.66739613 L10,14.3076923 L7.09151415,11.5141592 C6.70498799,11.1429098 6.09450584,11.1423827 5.70733915,11.5129641 L5.69999981,11.519989 Z"></path>
</svg>