<svg xmlns="http://www.w3.org/2000/svg" viewBox="0 0 51 31">
  <path fill="transparent" stroke="#E5E5E5" stroke-width="2" d="M15.9143766,1.09050481 L15.9138698,1.0905338 C14.2174527,1.18716516 12.8081817,1.39265065 11.4731982,1.76623701 C8.43694178,2.61492101 5.81070621,4.38365452 3.91701207,6.86674581 C2.02550925,9.3457821 1,12.3814742 1,15.5001522 C1,18.6200731 2.02505032,21.6539208 3.91704194,24.1335977 C5.81120797,26.6163779 8.43787809,28.3856451 11.4734901,29.234149 C12.8055317,29.6069122 14.2118799,29.8117444 15.9143766,29.9097996 C16.0559477,29.9177718 16.0559477,29.9177718 16.1976477,29.9251141 C17.4239621,29.9873191 18.4095772,29.9998378 20.6610666,30.0000413 C20.8839282,30.0000615 20.8839282,30.0000615 21.1068865,30.0001522 C22.2077615,30.0000272 22.2077615,30.0000272 25.5118865,29.9996522 C25.5141396,29.999652 25.5141396,29.999652 25.5163927,29.9996517 C28.8189974,29.999277 28.8189974,29.999277 29.926,29.9991522 C30.1253908,29.9991784 30.1253908,29.9991784 30.3244966,29.999257 C31.857002,29.9998617 32.5360268,29.9961145 33.3809668,29.9764597 C33.9854883,29.9623974 34.5467024,29.9407899 35.0855366,29.9098046 C36.7889119,29.8117608 38.1953252,29.6069522 39.5278018,29.2340674 C42.5631219,28.3856451 45.189792,26.6163779 47.0839879,24.1335586 C48.9755621,21.6544287 50,18.6207128 50,15.4991522 C50,12.3805916 48.9749563,9.34508169 47.0838486,6.86656309 C45.1902938,4.38365452 42.5640582,2.61492101 39.5275099,1.76615535 C38.1926753,1.39261064 36.7833425,1.1871493 35.0855905,1.09050292 C35.0167525,1.08658292 35.0167525,1.08658292 34.947884,1.08281305 C33.6605681,1.01304455 32.6263767,0.999337742 30.2588448,1.00007605 C30.0756911,1.00013315 30.0756911,1.00013315 29.892,1.0001522 L21.075,1.0001522 C20.8947405,1.00013315 20.8947405,1.00013315 20.7147101,1.00007605 C19.5941509,0.999720687 19.0972243,1.00110251 18.478075,1.00857929 C17.52496,1.02008902 16.7002795,1.04533797 15.9143766,1.09050481 Z M15.7998768,-0.906214967 C15.7999612,-0.906219779 15.8000457,-0.90622459 15.8001302,-0.906229401 L15.7996234,-0.906200407 C15.7997079,-0.906205261 15.7997923,-0.906210114 15.7998768,-0.906214968 Z"></path>
</svg>