<svg xmlns="http://www.w3.org/2000/svg" viewBox="0 0 51 31">
  <path fill="#528BCC" d="M15.857,0.0921521998 C17.597,-0.00784780024 19.335,0.000152199762 21.075,0.000152199762 L29.892,0.000152199762 C31.666,0.000152199762 33.404,-0.00784780024 35.143,0.0921521998 C36.724,0.1821522 38.264,0.3741522 39.797,0.8031522 C43.024,1.7051522 45.842,3.5891522 47.879,6.2601522 C49.904,8.9141522 51,12.1631522 51,15.4991522 C51,18.8391522 49.904,22.0861522 47.879,24.7401522 C45.842,27.4101522 43.024,29.2951522 39.797,30.1971522 C38.264,30.6261522 36.724,30.8171522 35.143,30.9081522 C33.404,31.0081522 31.666,30.9991522 29.926,30.9991522 C29.914,30.9991522 21.107,31.0001522 21.107,31.0001522 C19.335,30.9991522 17.597,31.0081522 15.857,30.9081522 C14.277,30.8171522 12.737,30.6261522 11.204,30.1971522 C7.977,29.2951522 5.159,27.4101522 3.122,24.7401522 C1.097,22.0861522 0,18.8391522 0,15.5001522 C0,12.1631522 1.097,8.9141522 3.122,6.2601522 C5.159,3.5891522 7.977,1.7051522 11.204,0.8031522 C12.737,0.3741522 14.277,0.1821522 15.857,0.0921521998 Z"></path>
</svg>