<svg xmlns="http://www.w3.org/2000/svg" viewBox="0 0 24 24">
  <path fill="#C4C8CC" d="M7.1277704,2 L16.8722296,2 C18.6552671,2 19.3018396,2.18565122 19.9536914,2.53426541 C20.6055433,2.88287959 21.1171204,3.39445674 21.4657346,4.04630859 C21.8143488,4.69816044 22,5.34473292 22,7.1277704 L22,16.8722296 C22,18.6552671 21.8143488,19.3018396 21.4657346,19.9536914 C21.1171204,20.6055433 20.6055433,21.1171204 19.9536914,21.4657346 C19.3018396,21.8143488 18.6552671,22 16.8722296,22 L7.1277704,22 C5.34473292,22 4.69816044,21.8143488 4.04630859,21.4657346 C3.39445674,21.1171204 2.88287959,20.6055433 2.53426541,19.9536914 C2.18565122,19.3018396 2,18.6552671 2,16.8722296 L2,7.1277704 C2,5.34473292 2.18565122,4.69816044 2.53426541,4.04630859 C2.88287959,3.39445674 3.39445674,2.88287959 4.04630859,2.53426541 C4.69816044,2.18565122 5.34473292,2 7.1277704,2 Z M6.5638852,4 C5.67236646,4 5.34908022,4.09282561 5.0231543,4.2671327 C4.69722837,4.4414398 4.4414398,4.69722837 4.2671327,5.0231543 C4.09282561,5.34908022 4,5.67236646 4,6.5638852 L4,17.4361148 C4,18.3276335 4.09282561,18.6509198 4.2671327,18.9768457 C4.4414398,19.3027716 4.69722837,19.5585602 5.0231543,19.7328673 C5.34908022,19.9071744 5.67236646,20 6.5638852,20 L17.4361148,20 C18.3276335,20 18.6509198,19.9071744 18.9768457,19.7328673 C19.3027716,19.5585602 19.5585602,19.3027716 19.7328673,18.9768457 C19.9071744,18.6509198 20,18.3276335 20,17.4361148 L20,6.5638852 C20,5.67236646 19.9071744,5.34908022 19.7328673,5.0231543 C19.5585602,4.69722837 19.3027716,4.4414398 18.9768457,4.2671327 C18.6509198,4.09282561 18.3276335,4 17.4361148,4 L6.5638852,4 Z"></path>
</svg>